<?xml version="1.0" encoding="UTF-8"?>
<svg width="110px" height="27px" viewBox="0 0 110 27" version="1.1" xmlns="http://www.w3.org/2000/svg" xmlns:xlink="http://www.w3.org/1999/xlink">
    <!-- Generator: Sketch 41.2 (35397) - http://www.bohemiancoding.com/sketch -->
    <title>Z!KOKO</title>
    <desc>Created with Sketch.</desc>
    <defs></defs>
    <g id="Page-3" stroke="none" stroke-width="1" fill="none" fill-rule="evenodd">
        <g id="Home---Desktop" transform="translate(-161.000000, -21.000000)" fill="#7C439D">
            <path d="M167.417969,42.7109375 L177.964844,42.7109375 L177.964844,47 L161.371094,47 L161.371094,43.8886719 L171.8125,25.7128906 L161.265625,25.7128906 L161.265625,21.40625 L177.771484,21.40625 L177.771484,24.4472656 L167.417969,42.7109375 Z M185.980469,39.125 L181.849609,39.125 L181.269531,21.40625 L186.560547,21.40625 L185.980469,39.125 Z M181.181641,44.5917969 C181.181641,44.2050762 181.246093,43.8447282 181.375,43.5107422 C181.503907,43.1767561 181.685546,42.8896496 181.919922,42.6494141 C182.154298,42.4091785 182.438475,42.2187507 182.772461,42.078125 C183.106447,41.9374993 183.484373,41.8671875 183.90625,41.8671875 C184.316408,41.8671875 184.688475,41.9374993 185.022461,42.078125 C185.356447,42.2187507 185.640624,42.4091785 185.875,42.6494141 C186.109376,42.8896496 186.291015,43.1767561 186.419922,43.5107422 C186.548829,43.8447282 186.613281,44.2050762 186.613281,44.5917969 C186.613281,44.9785176 186.548829,45.3359359 186.419922,45.6640625 C186.291015,45.9921891 186.109376,46.276366 185.875,46.5166016 C185.640624,46.7568371 185.356447,46.9443353 185.022461,47.0791016 C184.688475,47.2138679 184.316408,47.28125 183.90625,47.28125 C183.484373,47.28125 183.106447,47.2138679 182.772461,47.0791016 C182.438475,46.9443353 182.154298,46.7568371 181.919922,46.5166016 C181.685546,46.276366 181.503907,45.9921891 181.375,45.6640625 C181.246093,45.3359359 181.181641,44.9785176 181.181641,44.5917969 Z M197.722656,37.1210938 L195.683594,39.6875 L195.683594,47 L190.515625,47 L190.515625,21.40625 L195.683594,21.40625 L195.683594,32.5683594 L197.318359,29.8085938 L202.082031,21.40625 L208.410156,21.40625 L201.080078,32.65625 L208.533203,47 L202.398438,47 L197.722656,37.1210938 Z M228.449219,36.5058594 C228.449219,38.2988371 228.226565,39.8749932 227.78125,41.234375 C227.335935,42.5937568 226.711918,43.7246049 225.90918,44.6269531 C225.106441,45.5293014 224.139654,46.2089821 223.008789,46.6660156 C221.877924,47.1230492 220.62696,47.3515625 219.255859,47.3515625 C217.884759,47.3515625 216.630865,47.1230492 215.494141,46.6660156 C214.357416,46.2089821 213.38184,45.5293014 212.567383,44.6269531 C211.752926,43.7246049 211.120119,42.5937568 210.668945,41.234375 C210.217771,39.8749932 209.992188,38.2988371 209.992188,36.5058594 L209.992188,32.2519531 C209.992188,30.4121002 210.214842,28.7919992 210.660156,27.3916016 C211.105471,25.9912039 211.732418,24.8222703 212.541016,23.8847656 C213.349613,22.9472609 214.32226,22.2412133 215.458984,21.7666016 C216.595709,21.2919898 217.849603,21.0546875 219.220703,21.0546875 C220.591804,21.0546875 221.842768,21.2919898 222.973633,21.7666016 C224.104498,22.2412133 225.077144,22.9472609 225.891602,23.8847656 C226.706059,24.8222703 227.335935,25.9912039 227.78125,27.3916016 C228.226565,28.7919992 228.449219,30.4121002 228.449219,32.2519531 L228.449219,36.5058594 Z M223.263672,32.2167969 C223.263672,30.9980408 223.175782,29.9580121 223,29.0966797 C222.824218,28.2353473 222.566408,27.5292996 222.226562,26.9785156 C221.886717,26.4277316 221.464846,26.0234388 220.960938,25.765625 C220.457029,25.5078112 219.876956,25.3789062 219.220703,25.3789062 C218.552731,25.3789062 217.966799,25.5078112 217.462891,25.765625 C216.958982,26.0234388 216.537111,26.4277316 216.197266,26.9785156 C215.85742,27.5292996 215.59961,28.2353473 215.423828,29.0966797 C215.248046,29.9580121 215.160156,30.9980408 215.160156,32.2167969 L215.160156,36.5058594 C215.160156,37.6660214 215.248046,38.6591756 215.423828,39.4853516 C215.59961,40.3115276 215.86035,40.9882786 216.206055,41.515625 C216.55176,42.0429714 216.97949,42.4296863 217.489258,42.6757812 C217.999026,42.9218762 218.587887,43.0449219 219.255859,43.0449219 C219.912113,43.0449219 220.489255,42.9218762 220.987305,42.6757812 C221.485354,42.4296863 221.904295,42.0429714 222.244141,41.515625 C222.583986,40.9882786 222.838866,40.3115276 223.008789,39.4853516 C223.178712,38.6591756 223.263672,37.6660214 223.263672,36.5058594 L223.263672,32.2167969 Z M239.365234,37.1210938 L237.326172,39.6875 L237.326172,47 L232.158203,47 L232.158203,21.40625 L237.326172,21.40625 L237.326172,32.5683594 L238.960938,29.8085938 L243.724609,21.40625 L250.052734,21.40625 L242.722656,32.65625 L250.175781,47 L244.041016,47 L239.365234,37.1210938 Z M270.091797,36.5058594 C270.091797,38.2988371 269.869143,39.8749932 269.423828,41.234375 C268.978513,42.5937568 268.354496,43.7246049 267.551758,44.6269531 C266.749019,45.5293014 265.782232,46.2089821 264.651367,46.6660156 C263.520502,47.1230492 262.269538,47.3515625 260.898438,47.3515625 C259.527337,47.3515625 258.273443,47.1230492 257.136719,46.6660156 C255.999994,46.2089821 255.024418,45.5293014 254.209961,44.6269531 C253.395504,43.7246049 252.762698,42.5937568 252.311523,41.234375 C251.860349,39.8749932 251.634766,38.2988371 251.634766,36.5058594 L251.634766,32.2519531 C251.634766,30.4121002 251.85742,28.7919992 252.302734,27.3916016 C252.748049,25.9912039 253.374996,24.8222703 254.183594,23.8847656 C254.992192,22.9472609 255.964838,22.2412133 257.101562,21.7666016 C258.238287,21.2919898 259.492181,21.0546875 260.863281,21.0546875 C262.234382,21.0546875 263.485346,21.2919898 264.616211,21.7666016 C265.747076,22.2412133 266.719722,22.9472609 267.53418,23.8847656 C268.348637,24.8222703 268.978513,25.9912039 269.423828,27.3916016 C269.869143,28.7919992 270.091797,30.4121002 270.091797,32.2519531 L270.091797,36.5058594 Z M264.90625,32.2167969 C264.90625,30.9980408 264.81836,29.9580121 264.642578,29.0966797 C264.466796,28.2353473 264.208986,27.5292996 263.869141,26.9785156 C263.529295,26.4277316 263.107424,26.0234388 262.603516,25.765625 C262.099607,25.5078112 261.519535,25.3789062 260.863281,25.3789062 C260.195309,25.3789062 259.609378,25.5078112 259.105469,25.765625 C258.60156,26.0234388 258.179689,26.4277316 257.839844,26.9785156 C257.499998,27.5292996 257.242188,28.2353473 257.066406,29.0966797 C256.890624,29.9580121 256.802734,30.9980408 256.802734,32.2167969 L256.802734,36.5058594 C256.802734,37.6660214 256.890624,38.6591756 257.066406,39.4853516 C257.242188,40.3115276 257.502928,40.9882786 257.848633,41.515625 C258.194338,42.0429714 258.622068,42.4296863 259.131836,42.6757812 C259.641604,42.9218762 260.230465,43.0449219 260.898438,43.0449219 C261.554691,43.0449219 262.131833,42.9218762 262.629883,42.6757812 C263.127932,42.4296863 263.546873,42.0429714 263.886719,41.515625 C264.226564,40.9882786 264.481444,40.3115276 264.651367,39.4853516 C264.82129,38.6591756 264.90625,37.6660214 264.90625,36.5058594 L264.90625,32.2167969 Z" id="Z!KOKO"></path>
        </g>
    </g>
</svg>