<?xml version="1.0" encoding="UTF-8"?>
<svg width="43px" height="44px" viewBox="0 0 43 44" version="1.1" xmlns="http://www.w3.org/2000/svg" xmlns:xlink="http://www.w3.org/1999/xlink">
    <!-- Generator: Sketch 41.2 (35397) - http://www.bohemiancoding.com/sketch -->
    <title>Z!</title>
    <desc>Created with Sketch.</desc>
    <defs></defs>
    <g id="Page-2" stroke="none" stroke-width="1" fill="none" fill-rule="evenodd">
        <g id="Home-6" transform="translate(-41.000000, -28.000000)" fill="#7C439D">
            <g id="Group-4" transform="translate(-5.000000, -1.000000)">
                <path d="M56.3632812,64.8515625 L73.9414062,64.8515625 L73.9414062,72 L46.2851562,72 L46.2851562,66.8144531 L63.6875,36.5214844 L46.109375,36.5214844 L46.109375,29.34375 L73.6191406,29.34375 L73.6191406,34.4121094 L56.3632812,64.8515625 Z M87.3007812,58.875 L80.4160156,58.875 L79.4492188,29.34375 L88.2675781,29.34375 L87.3007812,58.875 Z M79.3027344,67.9863281 C79.3027344,67.3417937 79.4101552,66.7412137 79.625,66.1845703 C79.8398448,65.6279269 80.1425762,65.1494161 80.5332031,64.7490234 C80.9238301,64.3486308 81.3974582,64.0312512 81.9541016,63.796875 C82.510745,63.5624988 83.1406215,63.4453125 83.84375,63.4453125 C84.5273472,63.4453125 85.1474582,63.5624988 85.7041016,63.796875 C86.260745,64.0312512 86.734373,64.3486308 87.125,64.7490234 C87.515627,65.1494161 87.8183583,65.6279269 88.0332031,66.1845703 C88.2480479,66.7412137 88.3554688,67.3417937 88.3554688,67.9863281 C88.3554688,68.6308626 88.2480479,69.2265598 88.0332031,69.7734375 C87.8183583,70.3203152 87.515627,70.7939433 87.125,71.1943359 C86.734373,71.5947286 86.260745,71.9072254 85.7041016,72.1318359 C85.1474582,72.3564464 84.5273472,72.46875 83.84375,72.46875 C83.1406215,72.46875 82.510745,72.3564464 81.9541016,72.1318359 C81.3974582,71.9072254 80.9238301,71.5947286 80.5332031,71.1943359 C80.1425762,70.7939433 79.8398448,70.3203152 79.625,69.7734375 C79.4101552,69.2265598 79.3027344,68.6308626 79.3027344,67.9863281 Z" id="Z!"></path>
            </g>
        </g>
    </g>
</svg>