<svg width="100" height="100" viewBox="0 0 100 100" version="1.1" xmlns="http://www.w3.org/2000/svg" xmlns:xlink="http://www.w3.org/1999/xlink" xmlns:figma="http://www.figma.com/figma/ns">
<title>comment</title>
<desc>Created using Figma</desc>
<g id="Canvas" transform="translate(469 246)" figma:type="canvas">
<g id="comment" style="mix-blend-mode:normal;" figma:type="frame">
<g id="Vector" style="mix-blend-mode:normal;" figma:type="vector">
<mask id="mask0_outline_ins">
<use xlink:href="#path0_fill" fill="white" transform="translate(-463 -241)"/>
</mask>
<g mask="url(#mask0_outline_ins)">
<use xlink:href="#path1_stroke_2x" transform="translate(-463 -241)" fill="#808080" style="mix-blend-mode:normal;"/>
</g>
</g>
</g>
</g>
<defs>
<path id="path0_fill" d="M 44.2623 0C 19.8613 0 0 19.8613 0 44.2623C 0 49.8235 1.02144 55.2711 3.06431 60.3783C 4.53972 64.2371 6.69609 67.8689 9.30643 71.2736L 3.2913 85.3468C 2.83733 86.4817 2.95082 87.8436 3.74527 88.7516C 4.42623 89.546 5.33417 90 6.35561 90C 6.5826 90 6.69609 90 6.92308 90L 29.7352 86.0277C 34.3884 87.6166 39.2686 88.5246 44.2623 88.5246C 68.6633 88.5246 88.5246 68.6633 88.5246 44.2623C 88.5246 19.8613 68.6633 0 44.2623 0Z"/>
<path id="path1_stroke_2x" d="M 3.06431 60.3783L 7.73457 58.5926L 7.72091 58.5569L 7.7067 58.5214L 3.06431 60.3783ZM 9.30643 71.2736L 13.9041 73.2388L 15.0528 70.5511L 13.2745 68.2315L 9.30643 71.2736ZM 3.2913 85.3468L -1.30634 83.3817L -1.32935 83.4355L -1.35109 83.4898L 3.2913 85.3468ZM 3.74527 88.7516L 7.54155 85.4976L 7.52495 85.4783L 7.50815 85.4591L 3.74527 88.7516ZM 6.92308 90L 6.92308 95L 7.35515 95L 7.78082 94.9259L 6.92308 90ZM 29.7352 86.0277L 31.3509 81.296L 30.139 80.8822L 28.8774 81.1019L 29.7352 86.0277ZM 44.2623 -5C 17.0999 -5 -5 17.0999 -5 44.2623L 5 44.2623C 5 22.6227 22.6227 5 44.2623 5L 44.2623 -5ZM -5 44.2623C -4.97854 50.2862 -3.77977 56.667 -1.57807 62.2353L 7.7067 58.5214C 5.82265 53.8753 4.97854 49.3608 5 44.2623L -5 44.2623ZM -1.60595 62.164C 0.0385884 66.4142 2.5552 70.6712 5.3384 74.3158L 13.2745 68.2315C 10.837 65.0665 9.04085 62.06 7.73457 58.5926L -1.60595 62.164ZM 4.70879 69.3085L -1.30634 83.3817L 7.88894 87.3119L 13.9041 73.2388L 4.70879 69.3085ZM -1.35109 83.4898C -2.35004 85.9872 -2.2999 89.4358 -0.0176133 92.0441L 7.50815 85.4591C 7.86058 85.8618 7.98321 86.2757 8.01507 86.5432C 8.04576 86.8011 8.00825 87.0173 7.93368 87.2037L -1.35109 83.4898ZM -0.0510128 92.0055C 1.48439 93.7968 3.73397 95 6.35561 95L 6.35561 85C 6.60182 85 6.86374 85.0583 7.10056 85.1729C 7.33055 85.2842 7.47189 85.4164 7.54155 85.4976L -0.0510128 92.0055ZM 6.35561 95C 6.5826 95 6.69609 95 6.92308 95L 6.92308 85C 6.69609 85 6.5826 85 6.35561 85L 6.35561 95ZM 7.78082 94.9259L 30.5929 90.9536L 28.8774 81.1019L 6.06534 85.0741L 7.78082 94.9259ZM 28.1195 90.7595C 33.1199 92.4531 38.8094 93.5035 44.2623 93.5246L 44.2623 83.5246C 39.7278 83.5457 35.6569 82.7802 31.3509 81.296L 28.1195 90.7595ZM 44.2623 93.5246C 71.4247 93.5246 93.5246 71.4247 93.5246 44.2623L 83.5246 44.2623C 83.5246 65.9019 65.9019 83.5246 44.2623 83.5246L 44.2623 93.5246ZM 93.5246 44.2623C 93.5246 17.0999 71.4247 -5 44.2623 -5L 44.2623 5C 65.9019 5 83.5246 22.6227 83.5246 44.2623L 93.5246 44.2623Z"/>
</defs>
</svg>
