<svg width="48" height="48" viewBox="0 0 48 48" version="1.1" xmlns="http://www.w3.org/2000/svg" xmlns:xlink="http://www.w3.org/1999/xlink" xmlns:figma="http://www.figma.com/figma/ns">
<title>comment</title>
<desc>Created using Figma</desc>
<g id="Canvas" transform="matrix(0.48 0 0 0.48 225.12 118.08)" figma:type="canvas">
<g id="comment" style="mix-blend-mode:normal;" figma:type="frame">
<g id="Vector" style="mix-blend-mode:normal;" figma:type="vector">
<mask id="mask0_outline_ins">
<use xlink:href="#path0_fill" fill="white" transform="translate(-463 -241)"/>
</mask>
<g mask="url(#mask0_outline_ins)">
<use xlink:href="#path1_stroke_2x" transform="translate(-463 -241)" fill="#808080" style="mix-blend-mode:normal;"/>
</g>
</g>
</g>
</g>
<defs>
<path id="path0_fill" d="M 44.2623 0C 19.8613 0 0 19.8613 0 44.2623C 0 49.8235 1.02144 55.2711 3.06431 60.3783C 4.53972 64.2371 6.69609 67.8689 9.30643 71.2736L 3.2913 85.3468C 2.83733 86.4817 2.95082 87.8436 3.74527 88.7516C 4.42623 89.546 5.33417 90 6.35561 90C 6.5826 90 6.69609 90 6.92308 90L 29.7352 86.0277C 34.3884 87.6166 39.2686 88.5246 44.2623 88.5246C 68.6633 88.5246 88.5246 68.6633 88.5246 44.2623C 88.5246 19.8613 68.6633 0 44.2623 0Z"/>
<path id="path1_stroke_2x" d="M 3.06431 60.3783L 8.66862 58.2355L 8.65222 58.1926L 8.63517 58.15L 3.06431 60.3783ZM 9.30643 71.2736L 14.8236 73.6318L 16.2021 70.4066L 14.0681 67.6231L 9.30643 71.2736ZM 3.2913 85.3468L -2.22587 82.9886L -2.25348 83.0532L -2.27956 83.1184L 3.2913 85.3468ZM 3.74527 88.7516L 8.30081 84.8468L 8.28089 84.8236L 8.26073 84.8006L 3.74527 88.7516ZM 6.92308 90L 6.92308 96L 7.44156 96L 7.95237 95.9111L 6.92308 90ZM 29.7352 86.0277L 31.674 80.3496L 30.2198 79.8531L 28.7059 80.1167L 29.7352 86.0277ZM 44.2623 -6C 16.5476 -6 -6 16.5476 -6 44.2623L 6 44.2623C 6 23.175 23.175 6 44.2623 6L 44.2623 -6ZM -6 44.2623C -5.97425 50.3787 -4.74002 56.9461 -2.50655 62.6067L 8.63517 58.15C 6.78289 53.5961 5.97425 49.2682 6 44.2623L -6 44.2623ZM -2.54 62.5211C -0.861638 66.8496 1.72702 71.2316 4.54479 74.9242L 14.0681 67.6231C 11.6652 64.5061 9.94108 61.6245 8.66862 58.2355L -2.54 62.5211ZM 3.78926 68.9155L -2.22587 82.9886L 8.80847 87.7049L 14.8236 73.6318L 3.78926 68.9155ZM -2.27956 83.1184C -3.38752 85.8883 -3.35004 89.7542 -0.77019 92.7026L 8.26073 84.8006C 8.76309 85.3747 8.95564 85.9848 9.00806 86.425C 9.05908 86.8536 8.99704 87.2379 8.86216 87.5751L -2.27956 83.1184ZM -0.810269 92.6563C 0.896026 94.647 3.41393 96 6.35561 96L 6.35561 84C 6.75321 84 7.16397 84.0927 7.53612 84.2727C 7.90007 84.4489 8.14912 84.6699 8.30081 84.8468L -0.810269 92.6563ZM 6.35561 96C 6.5826 96 6.69609 96 6.92308 96L 6.92308 84C 6.69609 84 6.5826 84 6.35561 84L 6.35561 96ZM 7.95237 95.9111L 30.7645 91.9388L 28.7059 80.1167L 5.89379 84.0889L 7.95237 95.9111ZM 27.7963 91.7058C 32.8662 93.4203 38.7175 94.4992 44.2623 94.5246L 44.2623 82.5246C 39.8197 82.55 35.9106 81.8129 31.674 80.3496L 27.7963 91.7058ZM 44.2623 94.5246C 71.977 94.5246 94.5246 71.977 94.5246 44.2623L 82.5246 44.2623C 82.5246 65.3496 65.3496 82.5246 44.2623 82.5246L 44.2623 94.5246ZM 94.5246 44.2623C 94.5246 16.5476 71.977 -6 44.2623 -6L 44.2623 6C 65.3496 6 82.5246 23.175 82.5246 44.2623L 94.5246 44.2623Z"/>
</defs>
</svg>
