<svg width="48" height="48" viewBox="0 0 48 48" version="1.1" xmlns="http://www.w3.org/2000/svg" xmlns:xlink="http://www.w3.org/1999/xlink" xmlns:figma="http://www.figma.com/figma/ns">
<title>delete</title>
<desc>Created using Figma</desc>
<g id="Canvas" transform="matrix(0.48 0 0 0.48 225.12 56.16)" figma:type="canvas">
<g id="delete" style="mix-blend-mode:normal;" figma:type="frame">
<g id="Ellipse" style="mix-blend-mode:normal;" figma:type="ellipse">
<mask id="mask0_outline_ins">
<use xlink:href="#path0_fill" fill="white" transform="translate(-464 -112)"/>
</mask>
<g mask="url(#mask0_outline_ins)">
<use xlink:href="#path1_stroke_2x" transform="translate(-464 -112)" fill="#808080" style="mix-blend-mode:normal;"/>
</g>
</g>
<g id="Group" style="mix-blend-mode:normal;" figma:type="frame">
<g id="Line" style="mix-blend-mode:normal;" figma:type="line">
<use xlink:href="#path2_stroke" transform="matrix(0.707107 0.707107 -0.707107 0.707107 -433.728 -77.7279)" fill="#808080" style="mix-blend-mode:normal;"/>
</g>
<g id="Line" style="mix-blend-mode:normal;" figma:type="line">
<use xlink:href="#path2_stroke" transform="matrix(-0.707107 0.707107 0.707107 0.707107 -404.272 -77.7279)" fill="#808080" style="mix-blend-mode:normal;"/>
</g>
</g>
</g>
</g>
<defs>
<path id="path0_fill" d="M 90 45C 90 69.8528 69.8528 90 45 90C 20.1472 90 0 69.8528 0 45C 0 20.1472 20.1472 0 45 0C 69.8528 0 90 20.1472 90 45Z"/>
<path id="path1_stroke_2x" d="M 84 45C 84 66.5391 66.5391 84 45 84L 45 96C 73.1665 96 96 73.1665 96 45L 84 45ZM 45 84C 23.4609 84 6 66.5391 6 45L -6 45C -6 73.1665 16.8335 96 45 96L 45 84ZM 6 45C 6 23.4609 23.4609 6 45 6L 45 -6C 16.8335 -6 -6 16.8335 -6 45L 6 45ZM 45 6C 66.5391 6 84 23.4609 84 45L 96 45C 96 16.8335 73.1665 -6 45 -6L 45 6Z"/>
<path id="path2_stroke" d="M 3 -6C 1.34315 -6 0 -4.65685 0 -3C 0 -1.34315 1.34315 0 3 0L 3 -6ZM 33 0C 34.6569 0 36 -1.34315 36 -3C 36 -4.65685 34.6569 -6 33 -6L 33 0ZM 3 0L 33 0L 33 -6L 3 -6L 3 0Z"/>
</defs>
</svg>
