<?xml version="1.0" encoding="UTF-8"?>
<svg width="28px" height="26px" viewBox="0 0 28 26" version="1.1" xmlns="http://www.w3.org/2000/svg" xmlns:xlink="http://www.w3.org/1999/xlink">
    <!-- Generator: Sketch 41.2 (35397) - http://www.bohemiancoding.com/sketch -->
    <title>Shape</title>
    <desc>Created with Sketch.</desc>
    <defs>
        <path d="M37.0769225,29 C34.8885103,29 33.1123043,29.9695322 31.8942305,31.3372399 C30.6761567,32.704929 29.9999998,34.4668366 29.9999998,36.0790519 C29.9999998,39.4928978 31.8962428,42.7290822 34.4230765,45.6011436 C36.9499102,48.473205 40.12423,50.9860356 42.7403837,52.9398816 C42.8489977,53.0200395 42.9971542,53.0200395 43.1057683,52.9398816 C45.721922,50.9860356 48.8962418,48.473205 51.4230755,45.6011436 C53.9499092,42.7290822 55.8461521,39.4928978 55.8461521,36.0790519 C55.8461521,34.4668366 55.1699952,32.704929 53.9519215,31.3372399 C52.7338477,29.9695322 50.9576416,29 48.7692295,29 C46.3832942,29 44.418162,30.7877476 42.923076,32.5299136 C41.4279868,30.7877476 39.4628331,29 37.0769225,29 Z M37.0769225,29.6155692 C39.2539624,29.6155692 41.1989746,31.4159137 42.6826914,33.1935751 C42.7410859,33.2666629 42.8295424,33.3092165 42.923076,33.3092165 C43.0166096,33.3092165 43.105066,33.2666629 43.1634606,33.1935751 C44.6471774,31.4159137 46.5921588,29.6155692 48.7692295,29.6155692 C50.7757924,29.6155692 52.3822016,30.4957138 53.4999984,31.7508244 C54.6177953,33.0059444 55.2307675,34.6400058 55.2307675,36.0790519 C55.2307675,39.2628363 53.4373553,42.383113 50.961537,45.1971744 C48.5400449,47.9494819 45.492322,50.3794202 42.923076,52.3050816 C40.35383,50.3794202 37.3061071,47.9494819 34.8846149,45.1971744 C32.4087966,42.383113 30.6153843,39.2628363 30.6153843,36.0790519 C30.6153843,34.6400058 31.2283567,33.0059444 32.3461536,31.7508244 C33.4639504,30.4957138 35.0703595,29.6155692 37.0769225,29.6155692 L37.0769225,29.6155692 Z" id="path-1"></path>
        <mask id="mask-2" maskContentUnits="userSpaceOnUse" maskUnits="objectBoundingBox" x="-0.7" y="-0.7" width="27.2461523" height="25.4">
            <rect x="29.2999998" y="28.3" width="27.2461523" height="25.4" fill="white"></rect>
            <use xlink:href="#path-1" fill="black"></use>
        </mask>
    </defs>
    <g id="Page-2" stroke="none" stroke-width="1" fill="none" fill-rule="evenodd">
        <g id="Home-5" transform="translate(-29.000000, -1683.000000)">
            <g id="Post" transform="translate(-10.000000, 992.000000)">
                <g id="Group-2" transform="translate(10.000000, 663.000000)">
                    <g id="Shape">
                        <use fill="#BD081C" fill-rule="evenodd" xlink:href="#path-1"></use>
                        <use stroke="#BD081C" mask="url(#mask-2)" stroke-width="1.4" xlink:href="#path-1"></use>
                    </g>
                </g>
            </g>
        </g>
    </g>
</svg>