<svg width="100" height="100" viewBox="0 0 100 100" version="1.1" xmlns="http://www.w3.org/2000/svg" xmlns:xlink="http://www.w3.org/1999/xlink" xmlns:figma="http://www.figma.com/figma/ns">
<title>like</title>
<desc>Created using Figma</desc>
<g id="Canvas" transform="translate(346 246)" figma:type="canvas">
<g id="like" style="mix-blend-mode:normal;" figma:type="frame">
<g id="Vector" style="mix-blend-mode:normal;" figma:type="vector">
<mask id="mask0_outline_ins">
<use xlink:href="#path0_fill" fill="white" transform="translate(-345 -241)"/>
</mask>
<g mask="url(#mask0_outline_ins)">
<use xlink:href="#path1_stroke_2x" transform="translate(-345 -241)" fill="#808080" style="mix-blend-mode:normal;"/>
</g>
</g>
</g>
</g>
<defs>
<path id="path0_fill" d="M 48.7952 90C 47.6987 90 46.7849 89.6378 45.8711 89.0946C 38.1955 84.2052 -1.3943e-06 58.4909 -1.3943e-06 30.4225C -1.3943e-06 14.1247 13.5238 -6.43349e-15 28.875 -6.43349e-15C 39.6575 -6.43349e-15 44.7746 5.07042 48.7952 9.59758C 52.633 5.07042 57.7501 -6.43349e-15 68.7153 -6.43349e-15C 84.0666 -6.43349e-15 97.5904 14.3058 97.5904 30.4225C 97.5904 58.4909 59.3949 84.2052 51.7192 89.0946C 50.8055 89.8189 49.8917 90 48.7952 90Z"/>
<path id="path1_stroke_2x" d="M 45.8711 89.0946L 43.1849 93.3117L 43.2498 93.353L 43.316 93.3924L 45.8711 89.0946ZM 48.7952 9.59758L 45.0567 12.9178L 48.883 17.2262L 52.6091 12.8308L 48.7952 9.59758ZM 51.7192 89.0946L 49.033 84.8775L 48.8154 85.0161L 48.6132 85.1763L 51.7192 89.0946ZM 48.7952 85C 48.8193 85 48.8455 85.0075 48.8328 85.0033C 48.7996 84.9923 48.6801 84.9477 48.4263 84.7968L 43.316 93.3924C 44.5792 94.125 46.7609 94.9113 48.7952 95L 48.7952 85ZM 48.5574 84.8775C 44.7641 82.4615 33.7398 75.1358 23.5994 64.9219C 13.2594 54.5425 5 42.3452 5 30.4225L -5 30.4225C -5 46.5683 5.83837 61.2623 16.515 71.9795C 27.3912 82.8621 39.3026 90.8383 43.1849 93.3117L 48.5574 84.8775ZM 5 30.4225C 5 16.6504 16.5152 5 28.875 5L 28.875 -5C 10.5323 -5 -5 11.5991 -5 30.4225L 5 30.4225ZM 28.875 5C 37.5374 5 41.401 8.80147 45.0567 12.9178L 52.5337 6.27741C 48.1482 1.33937 41.7776 -5 28.875 -5L 28.875 5ZM 52.6091 12.8308C 56.0004 8.83046 59.8513 5 68.7153 5L 68.7153 -5C 55.6489 -5 49.2656 1.31039 44.9812 6.36437L 52.6091 12.8308ZM 68.7153 5C 81.0566 5 92.5904 16.8119 92.5904 30.4225L 102.59 30.4225C 102.59 11.7998 87.0767 -5 68.7153 -5L 68.7153 5ZM 92.5904 30.4225C 92.5904 42.3452 84.331 54.5425 73.9909 64.9219C 63.8506 75.1358 52.8263 82.4615 49.033 84.8775L 54.4055 93.3117C 58.2878 90.8383 70.1991 82.8621 81.0754 71.9795C 91.752 61.2623 102.59 46.5683 102.59 30.4225L 92.5904 30.4225ZM 48.6132 85.1763C 48.6262 85.166 48.6713 85.1327 48.7461 85.0943C 48.8218 85.0554 48.8981 85.0266 48.9637 85.008C 49.0853 84.9736 49.0828 85 48.7952 85L 48.7952 95C 50.38 94.9761 52.9032 94.3576 54.8252 93.0128L 48.6132 85.1763Z"/>
</defs>
</svg>
